# xmcd
#
# Track frame offsets: 
#        150
#        13042
#        40717
#        54702
#        79432
#        98385
#        113607
#        126257
#        143242
#        147372
#        168862
#        188047
#        196092
#        215042
#        234502
#        250262
#        268455
#        286537
#        305340
#
# Disc length: 4405 seconds
#
# Revision: 0
# Processed by: cddbd v1.5.2PL0 Copyright (c) Steve Scherf et al.
# Submitted via: ExactAudioCopy v0.99pb5
#
DISCID=0c113313
DTITLE=B.B. King - King Of The Blues Vol 4 (1975 -91)
DYEAR=1992
DGENRE=Blues
TTITLE0=Let The Good Times Roll
TTITLE1=Don't You Lie To Me
TTITLE2=Mother Fuyer
TTITLE3=Never Make A Move Too Soon
TTITLE4=When It All Comes Down
TTITLE5=Better Not Look Around
TTITLE6=Caldonia
TTITLE7=Ther Must Be A better World Somewhere
TTITLE8=Play With Your Poodle
TTITLE9=Darlin' You Know I Love You
TTITLE10=Inflation Blues
TTITLE11=Make Love To Me
TTITLE12=Into The Night
TTITLE13=Six Silver Strings
TTITLE14=When Love Comes To Town
TTITLE15=Right Time Wrong Place
TTITLE16=Many Miles Travelled
TTITLE17=I'm Movin' On
TTITLE18=Sine I met You Baby
EXTD=
EXTT0=
EXTT1=
EXTT2=
EXTT3=
EXTT4=
EXTT5=
EXTT6=
EXTT7=
EXTT8=
EXTT9=
EXTT10=
EXTT11=
EXTT12=
EXTT13=
EXTT14=
EXTT15=
EXTT16=
EXTT17=
EXTT18=
PLAYORDER=
